<?xml version="1.0" encoding="iso-8859-1"?>
<!-- Generator: Adobe Illustrator 18.1.1, SVG Export Plug-In . SVG Version: 6.00 Build 0)  -->
<svg version="1.1" id="Capa_1" xmlns="http://www.w3.org/2000/svg" xmlns:xlink="http://www.w3.org/1999/xlink" x="0px" y="0px"
	 viewBox="0 0 503.972 503.972" style="enable-background:new 0 0 503.972 503.972;" xml:space="preserve">
<g>
	<path style="fill:white;" d="M394.236,142.25c-49.56,0-91.503,33.043-105.078,78.238c-8.958-10.551-22.28-17.273-37.172-17.273
		c-14.892,0-28.222,6.722-37.172,17.273c-13.575-45.195-55.518-78.238-105.078-78.238C49.227,142.25,0,191.477,0,251.986
		s49.227,109.736,109.736,109.736s109.736-49.227,109.736-109.736c0-17.932,14.583-32.514,32.514-32.514
		c17.924,0,32.514,14.583,32.514,32.514c0,60.509,49.227,109.736,109.736,109.736s109.736-49.227,109.736-109.736
		S454.745,142.25,394.236,142.25z M109.736,345.464c-51.543,0-93.479-41.935-93.479-93.479s41.935-93.479,93.479-93.479
		s93.479,41.935,93.479,93.479S161.279,345.464,109.736,345.464z M394.236,345.464c-51.543,0-93.479-41.935-93.479-93.479
		s41.935-93.479,93.479-93.479c51.543,0,93.479,41.935,93.479,93.479S445.779,345.464,394.236,345.464z"/>
</g>
<g>
</g>
<g>
</g>
<g>
</g>
<g>
</g>
<g>
</g>
<g>
</g>
<g>
</g>
<g>
</g>
<g>
</g>
<g>
</g>
<g>
</g>
<g>
</g>
<g>
</g>
<g>
</g>
<g>
</g>
</svg>
